{"title":"20-20 - 26-8-2016 - The Girl Left Behind","uid":15959446,"size":328693099,"categoryP":"video","categoryS":"tv_shows","magnet":"?xt=urn:btih:79dfe0f4c4c81a6189e79ddb50f7aee6918b84f7&amp;dn=20-20+-+26-8-2016+-+The+Girl+Left+Behind&amp;tr=udp%3A%2F%2Ftracker.leechers-paradise.org%3A6969&amp;tr=udp%3A%2F%2Fzer0day.ch%3A1337&amp;tr=udp%3A%2F%2Fopen.demonii.com%3A1337&amp;tr=udp%3A%2F%2Ftracker.coppersurfer.tk%3A6969&amp;tr=udp%3A%2F%2Fexodus.desync.com%3A6969","seeders":14,"leechers":4,"uploader":"Bullrout","files":1,"time":1475646646,"description":"20-20 - 26-8-2016 - The Girl Left Behind\r\n\r\nAn investigation into the captivity and fight for freedom of American ISIS hostage Kayla Mueller, a humanitarian aid worker from Prescott, Ariz., who was kidnapped in 2013.\r\n\r\nComplete name                            : 20-20 - 26-8-2016 - The Girl Left Behind.mp4\r\nFormat                                   : MPEG-4\r\nFormat profile                           : Base Media / Version 2\r\nCodec ID                                 : mp42 (mp42/isom/avc1)\r\nFile size                                : 313 MiB\r\nDuration                                 : 39 min 51 s\r\nOverall bit rate mode                    : Variable\r\nOverall bit rate                         : 1 099 kb/s\r\n\r\nVideo\r\nID                                       : 2\r\nFormat                                   : AVC\r\nFormat/Info                              : Advanced Video Codec\r\nFormat profile                           :   \r\nFormat settings, CABAC                   : Yes\r\nFormat settings, ReFrames                : 3 frames\r\nCodec ID                                 : avc1\r\nCodec ID/Info                            : Advanced Video Coding\r\nDuration                                 : 39 min 51 s\r\nBit rate mode                            : Variable\r\nBit rate                                 : 968 kb/s\r\nMaximum bit rate                         : 1 000 kb/s\r\nWidth                                    : 720 pixels\r\nHeight                                   : 404 pixels\r\nDisplay aspect ratio                     : 16:9\r\nOriginal display aspect ratio            : 16:9\r\nFrame rate mode                          : Constant\r\nFrame rate                               : 25.000 FPS\r\nStandard                                 : PAL\r\nColor space                              : YUV\r\nChroma subsampling                       : 4:2:0\r\nBit depth                                : 8 bits\r\nScan type                                : Progressive\r\nBits/(Pixel*Frame)                       : 0.133\r\nStream size                              : 276 MiB (88%)\r\nWriting library                          : x264 core 112\r\nColor range                              : Limited\r\nColor primaries                          : BT.601 PAL\r\nTransfer characteristics                 : BT.470 System B, BT.470 System G\r\nMatrix coefficients                      : BT.601\r\n\r\nAudio\r\nID                                       : 1\r\nFormat                                   : AAC\r\nFormat/Info                              : Advanced Audio Codec\r\nFormat profile                           : LC\r\nCodec ID                                 : 40\r\nDuration                                 : 39 min 51 s\r\nBit rate mode                            : Variable\r\nBit rate                                 : 128 kb/s\r\nMaximum bit rate                         : 576 kb/s\r\nChannel(s)                               : 2 channels\r\nChannel positions                        : Front: L R\r\nSampling rate                            : 48.0 kHz\r\nFrame rate                               : 46.875 FPS (1024 spf)\r\nCompression mode                         : Lossy\r\nStream size                              : 36.5 MiB (12%)","torrent":{"xt":"urn:btih:79dfe0f4c4c81a6189e79ddb50f7aee6918b84f7","amp;dn":"20-20+-+26-8-2016+-+The+Girl+Left+Behind","amp;tr":["udp%3A%2F%2Ftracker.leechers-paradise.org%3A6969","udp%3A%2F%2Fzer0day.ch%3A1337","udp%3A%2F%2Fopen.demonii.com%3A1337","udp%3A%2F%2Ftracker.coppersurfer.tk%3A6969","udp%3A%2F%2Fexodus.desync.com%3A6969"],"infoHash":"79dfe0f4c4c81a6189e79ddb50f7aee6918b84f7","infoHashBuffer":{"type":"Buffer","data":[121,223,224,244,196,200,26,97,137,231,157,219,80,247,174,230,145,139,132,247]},"announce":[],"urlList":[]}}